<mxfile host="app.diagrams.net" agent="Mozilla/5.0 (Windows NT 10.0; Win64; x64) AppleWebKit/537.36 (KHTML, like Gecko) Chrome/131.0.0.0 Safari/537.36" version="25.0.3">
  <diagram id="C5RBs43oDa-KdzZeNtuy" name="Page-1">
    <mxGraphModel dx="1290" dy="530" grid="1" gridSize="10" guides="1" tooltips="1" connect="1" arrows="1" fold="1" page="1" pageScale="1" pageWidth="827" pageHeight="1169" math="0" shadow="0">
      <root>
        <mxCell id="WIyWlLk6GJQsqaUBKTNV-0" />
        <mxCell id="WIyWlLk6GJQsqaUBKTNV-1" parent="WIyWlLk6GJQsqaUBKTNV-0" />
        <mxCell id="d_SjFFps5UnjsoisZp1E-10" style="edgeStyle=orthogonalEdgeStyle;rounded=0;orthogonalLoop=1;jettySize=auto;html=1;exitX=0.5;exitY=1;exitDx=0;exitDy=0;exitPerimeter=0;entryX=0.5;entryY=0;entryDx=0;entryDy=0;" edge="1" parent="WIyWlLk6GJQsqaUBKTNV-1" source="d_SjFFps5UnjsoisZp1E-0" target="d_SjFFps5UnjsoisZp1E-1">
          <mxGeometry relative="1" as="geometry" />
        </mxCell>
        <mxCell id="d_SjFFps5UnjsoisZp1E-0" value="START" style="strokeWidth=2;html=1;shape=mxgraph.flowchart.start_1;whiteSpace=wrap;" vertex="1" parent="WIyWlLk6GJQsqaUBKTNV-1">
          <mxGeometry x="360" y="70" width="100" height="60" as="geometry" />
        </mxCell>
        <mxCell id="d_SjFFps5UnjsoisZp1E-13" style="edgeStyle=orthogonalEdgeStyle;rounded=0;orthogonalLoop=1;jettySize=auto;html=1;exitX=0.5;exitY=1;exitDx=0;exitDy=0;entryX=0.5;entryY=0;entryDx=0;entryDy=0;" edge="1" parent="WIyWlLk6GJQsqaUBKTNV-1" source="d_SjFFps5UnjsoisZp1E-1" target="d_SjFFps5UnjsoisZp1E-11">
          <mxGeometry relative="1" as="geometry" />
        </mxCell>
        <mxCell id="d_SjFFps5UnjsoisZp1E-1" value="READ AGE" style="shape=parallelogram;html=1;strokeWidth=2;perimeter=parallelogramPerimeter;whiteSpace=wrap;rounded=1;arcSize=12;size=0.23;" vertex="1" parent="WIyWlLk6GJQsqaUBKTNV-1">
          <mxGeometry x="320" y="160" width="180" height="60" as="geometry" />
        </mxCell>
        <mxCell id="d_SjFFps5UnjsoisZp1E-5" style="edgeStyle=orthogonalEdgeStyle;rounded=0;orthogonalLoop=1;jettySize=auto;html=1;exitX=0;exitY=0.5;exitDx=0;exitDy=0;exitPerimeter=0;entryX=0.5;entryY=0;entryDx=0;entryDy=0;" edge="1" parent="WIyWlLk6GJQsqaUBKTNV-1" source="d_SjFFps5UnjsoisZp1E-2" target="d_SjFFps5UnjsoisZp1E-3">
          <mxGeometry relative="1" as="geometry" />
        </mxCell>
        <mxCell id="d_SjFFps5UnjsoisZp1E-7" value="YES" style="edgeLabel;html=1;align=center;verticalAlign=middle;resizable=0;points=[];" vertex="1" connectable="0" parent="d_SjFFps5UnjsoisZp1E-5">
          <mxGeometry x="-0.6202" relative="1" as="geometry">
            <mxPoint as="offset" />
          </mxGeometry>
        </mxCell>
        <mxCell id="d_SjFFps5UnjsoisZp1E-6" style="edgeStyle=orthogonalEdgeStyle;rounded=0;orthogonalLoop=1;jettySize=auto;html=1;exitX=1;exitY=0.5;exitDx=0;exitDy=0;exitPerimeter=0;entryX=0.5;entryY=0;entryDx=0;entryDy=0;" edge="1" parent="WIyWlLk6GJQsqaUBKTNV-1" source="d_SjFFps5UnjsoisZp1E-2" target="d_SjFFps5UnjsoisZp1E-4">
          <mxGeometry relative="1" as="geometry" />
        </mxCell>
        <mxCell id="d_SjFFps5UnjsoisZp1E-8" value="NO" style="edgeLabel;html=1;align=center;verticalAlign=middle;resizable=0;points=[];" vertex="1" connectable="0" parent="d_SjFFps5UnjsoisZp1E-6">
          <mxGeometry x="-0.6908" y="-1" relative="1" as="geometry">
            <mxPoint as="offset" />
          </mxGeometry>
        </mxCell>
        <mxCell id="d_SjFFps5UnjsoisZp1E-2" value="RESULT =TRUE?" style="strokeWidth=2;html=1;shape=mxgraph.flowchart.decision;whiteSpace=wrap;" vertex="1" parent="WIyWlLk6GJQsqaUBKTNV-1">
          <mxGeometry x="338" y="340" width="152" height="130" as="geometry" />
        </mxCell>
        <mxCell id="d_SjFFps5UnjsoisZp1E-3" value="PRINT &quot;VALID AGE&quot;" style="shape=parallelogram;html=1;strokeWidth=2;perimeter=parallelogramPerimeter;whiteSpace=wrap;rounded=1;arcSize=12;size=0.23;" vertex="1" parent="WIyWlLk6GJQsqaUBKTNV-1">
          <mxGeometry x="70" y="510" width="250" height="60" as="geometry" />
        </mxCell>
        <mxCell id="d_SjFFps5UnjsoisZp1E-4" value="PRINT&quot; INVALID AGE&quot;" style="shape=parallelogram;html=1;strokeWidth=2;perimeter=parallelogramPerimeter;whiteSpace=wrap;rounded=1;arcSize=12;size=0.23;" vertex="1" parent="WIyWlLk6GJQsqaUBKTNV-1">
          <mxGeometry x="520" y="510" width="250" height="60" as="geometry" />
        </mxCell>
        <mxCell id="d_SjFFps5UnjsoisZp1E-11" value="RESULT = (AGE &amp;gt;= 18 AND AGE &amp;lt;= 45)" style="rounded=1;whiteSpace=wrap;html=1;absoluteArcSize=1;arcSize=14;strokeWidth=2;" vertex="1" parent="WIyWlLk6GJQsqaUBKTNV-1">
          <mxGeometry x="300" y="250" width="230" height="60" as="geometry" />
        </mxCell>
        <mxCell id="d_SjFFps5UnjsoisZp1E-12" style="edgeStyle=orthogonalEdgeStyle;rounded=0;orthogonalLoop=1;jettySize=auto;html=1;exitX=0.5;exitY=1;exitDx=0;exitDy=0;entryX=0.5;entryY=0;entryDx=0;entryDy=0;entryPerimeter=0;" edge="1" parent="WIyWlLk6GJQsqaUBKTNV-1" source="d_SjFFps5UnjsoisZp1E-11" target="d_SjFFps5UnjsoisZp1E-2">
          <mxGeometry relative="1" as="geometry" />
        </mxCell>
        <mxCell id="d_SjFFps5UnjsoisZp1E-14" value="END" style="strokeWidth=2;html=1;shape=mxgraph.flowchart.terminator;whiteSpace=wrap;" vertex="1" parent="WIyWlLk6GJQsqaUBKTNV-1">
          <mxGeometry x="360" y="660" width="100" height="60" as="geometry" />
        </mxCell>
        <mxCell id="d_SjFFps5UnjsoisZp1E-15" style="edgeStyle=orthogonalEdgeStyle;rounded=0;orthogonalLoop=1;jettySize=auto;html=1;exitX=0.5;exitY=1;exitDx=0;exitDy=0;entryX=1;entryY=0.5;entryDx=0;entryDy=0;entryPerimeter=0;" edge="1" parent="WIyWlLk6GJQsqaUBKTNV-1" source="d_SjFFps5UnjsoisZp1E-4" target="d_SjFFps5UnjsoisZp1E-14">
          <mxGeometry relative="1" as="geometry" />
        </mxCell>
        <mxCell id="d_SjFFps5UnjsoisZp1E-16" style="edgeStyle=orthogonalEdgeStyle;rounded=0;orthogonalLoop=1;jettySize=auto;html=1;exitX=0.5;exitY=1;exitDx=0;exitDy=0;entryX=0;entryY=0.5;entryDx=0;entryDy=0;entryPerimeter=0;" edge="1" parent="WIyWlLk6GJQsqaUBKTNV-1" source="d_SjFFps5UnjsoisZp1E-3" target="d_SjFFps5UnjsoisZp1E-14">
          <mxGeometry relative="1" as="geometry" />
        </mxCell>
      </root>
    </mxGraphModel>
  </diagram>
</mxfile>
